<?xml version="1.0" encoding="UTF-8" standalone="no"?>
<!-- Created with Inkscape (http://www.inkscape.org/) -->

<svg
   width="52.552879mm"
   height="55.57608mm"
   viewBox="0 0 52.552879 55.57608"
   version="1.1"
   id="svg5"
   inkscape:version="1.1.2 (0a00cf5339, 2022-02-04)"
   sodipodi:docname="logo.svg"
   xmlns:inkscape="http://www.inkscape.org/namespaces/inkscape"
   xmlns:sodipodi="http://sodipodi.sourceforge.net/DTD/sodipodi-0.dtd"
   xmlns="http://www.w3.org/2000/svg"
   xmlns:svg="http://www.w3.org/2000/svg">
  <sodipodi:namedview
     id="namedview7"
     pagecolor="#505050"
     bordercolor="#eeeeee"
     borderopacity="1"
     inkscape:pageshadow="0"
     inkscape:pageopacity="0"
     inkscape:pagecheckerboard="0"
     inkscape:document-units="mm"
     showgrid="false"
     inkscape:zoom="3.3990298"
     inkscape:cx="83.994557"
     inkscape:cy="109.00169"
     inkscape:window-width="1920"
     inkscape:window-height="1051"
     inkscape:window-x="0"
     inkscape:window-y="29"
     inkscape:window-maximized="1"
     inkscape:current-layer="layer1" />
  <defs
     id="defs2" />
  <g
     inkscape:label="Layer 1"
     inkscape:groupmode="layer"
     id="layer1"
     transform="translate(-71.236334,-100.96979)">
    <path
       id="rot_middle_cross"
       style="fill:none;stroke:#83dbed;stroke-width:1.3;stroke-linecap:round;stroke-linejoin:miter;stroke-miterlimit:4;stroke-dasharray:2.6, 1.3, 0.65, 1.3;stroke-dashoffset:0;stroke-opacity:1"
       d="m 83.676226,139.34895 27.688724,-27.68872 m -27.732062,-0.0135 27.688722,27.68872" />
    <path
       id="outer_circles"
       style="fill:#83dbed;stroke:#293754;stroke-width:1.3;stroke-linecap:round;stroke-linejoin:round"
       d="m 101.66776,105.36763 a 3.7478392,3.7478392 0 0 1 -3.747838,3.74784 3.7478392,3.7478392 0 0 1 -3.747839,-3.74784 3.7478392,3.7478392 0 0 1 3.747839,-3.74784 3.7478392,3.7478392 0 0 1 3.747838,3.74784 z m -0.52917,38.62915 a 3.7478392,3.7478392 0 0 1 -3.747835,3.74784 3.7478392,3.7478392 0 0 1 -3.74784,-3.74784 3.7478392,3.7478392 0 0 1 3.74784,-3.74784 3.7478392,3.7478392 0 0 1 3.747835,3.74784 z m 21.19377,-19.14162 a 3.7478392,3.7478392 0 0 1 -3.74784,3.74784 3.7478392,3.7478392 0 0 1 -3.74784,-3.74784 3.7478392,3.7478392 0 0 1 3.74784,-3.74784 3.7478392,3.7478392 0 0 1 3.74784,3.74784 z m -42.182414,0.35788 a 3.7478392,3.7478392 0 0 1 -3.747839,3.74784 3.7478392,3.7478392 0 0 1 -3.747839,-3.74784 3.7478392,3.7478392 0 0 1 3.747839,-3.74784 3.7478392,3.7478392 0 0 1 3.747839,3.74784 z" />
    <path
       style="fill:none;fill-opacity:1;stroke:#293754;stroke-width:3;stroke-linecap:butt;stroke-linejoin:round;stroke-miterlimit:4;stroke-dasharray:none;stroke-opacity:1"
       d="m 80.5,115.5 v -7 h 7"
       id="corner-tl"
       sodipodi:nodetypes="ccc" />
    <path
       style="fill:none;stroke:#293754;stroke-width:3;stroke-linecap:butt;stroke-linejoin:round;stroke-miterlimit:4;stroke-dasharray:none;stroke-opacity:1"
       d="m 107.2,108.75 h 7 v 7"
       id="corner-tr"
       sodipodi:nodetypes="ccc" />
    <path
       style="fill:none;stroke:#293754;stroke-width:3;stroke-linecap:butt;stroke-linejoin:round;stroke-miterlimit:4;stroke-dasharray:none;stroke-opacity:1"
       d="m 80.5,135.54934 v 6.93385 h 6.880888"
       id="corner-bl"
       sodipodi:nodetypes="ccc" />
    <path
       style="fill:none;stroke:#293754;stroke-width:3;stroke-linecap:butt;stroke-linejoin:round;stroke-miterlimit:4;stroke-dasharray:none;stroke-opacity:1"
       d="m 107.2,142.474 h 7.16302 v -7.24513"
       id="corner-br"
       sodipodi:nodetypes="ccc" />
    <path
       id="middle_cross"
       style="fill:none;stroke:#293754;stroke-width:2;stroke-linecap:butt;stroke-linejoin:miter;stroke-miterlimit:4;stroke-dasharray:none;stroke-opacity:1"
       d="M 97.669859,140.2382 V 108.42809 M 80.631384,125.06366 H 114.85554" />
    <circle
       style="fill:#ffffff;stroke:#293754;stroke-width:2.3;stroke-linecap:round;stroke-linejoin:round;stroke-miterlimit:4;stroke-dasharray:none;stroke-opacity:1;paint-order:normal"
       id="center_circle"
       cx="97.599998"
       cy="125.11755"
       r="5.4231715" />
    <text
       xml:space="preserve"
       style="font-style:normal;font-weight:normal;font-size:10.5833px;line-height:1.25;font-family:sans-serif;fill:#293754;fill-opacity:1;stroke:none;stroke-width:0.264583"
       x="71"
       y="156.43494"
       id="title"><tspan
         sodipodi:role="line"
         id="tspan2967"
         style="font-style:normal;font-variant:normal;font-weight:bold;font-stretch:normal;font-size:9.87778px;font-family:'AnonymicePro Nerd Font';-inkscape-font-specification:'AnonymicePro Nerd Font, Bold';font-variant-ligatures:normal;font-variant-caps:normal;font-variant-numeric:normal;font-variant-east-asian:normal;fill:#293754;fill-opacity:1;stroke-width:0.264583"
         x="71"
         y="156.43494">ROS SWITCH</tspan></text>
  </g>
</svg>
